%TF.GenerationSoftware,KiCad,Pcbnew,6.0.10+dfsg-2*%
%TF.CreationDate,2023-01-21T20:21:13+08:00*%
%TF.ProjectId,RKD,524b442e-6b69-4636-9164-5f7063625858,57*%
%TF.SameCoordinates,Original*%
%TF.FileFunction,Paste,Bot*%
%TF.FilePolarity,Positive*%
%FSLAX46Y46*%
G04 Gerber Fmt 4.6, Leading zero omitted, Abs format (unit mm)*
G04 Created by KiCad (PCBNEW 6.0.10+dfsg-2) date 2023-01-21 20:21:13*
%MOMM*%
%LPD*%
G01*
G04 APERTURE LIST*
G04 Aperture macros list*
%AMRoundRect*
0 Rectangle with rounded corners*
0 $1 Rounding radius*
0 $2 $3 $4 $5 $6 $7 $8 $9 X,Y pos of 4 corners*
0 Add a 4 corners polygon primitive as box body*
4,1,4,$2,$3,$4,$5,$6,$7,$8,$9,$2,$3,0*
0 Add four circle primitives for the rounded corners*
1,1,$1+$1,$2,$3*
1,1,$1+$1,$4,$5*
1,1,$1+$1,$6,$7*
1,1,$1+$1,$8,$9*
0 Add four rect primitives between the rounded corners*
20,1,$1+$1,$2,$3,$4,$5,0*
20,1,$1+$1,$4,$5,$6,$7,0*
20,1,$1+$1,$6,$7,$8,$9,0*
20,1,$1+$1,$8,$9,$2,$3,0*%
G04 Aperture macros list end*
%ADD10R,2.032000X2.550000*%
%ADD11R,2.200000X2.500000*%
%ADD12RoundRect,0.150000X-0.150000X0.650000X-0.150000X-0.650000X0.150000X-0.650000X0.150000X0.650000X0*%
%ADD13RoundRect,0.150000X0.825000X0.150000X-0.825000X0.150000X-0.825000X-0.150000X0.825000X-0.150000X0*%
%ADD14RoundRect,0.250000X-0.450000X0.262500X-0.450000X-0.262500X0.450000X-0.262500X0.450000X0.262500X0*%
G04 APERTURE END LIST*
D10*
%TO.C,K2*%
X42570000Y67776126D03*
X34570000Y50494126D03*
X42570000Y50494126D03*
X34570000Y67776126D03*
D11*
X44685000Y64235126D03*
X31195000Y61695126D03*
%TD*%
D10*
%TO.C,K6*%
X6165126Y15064126D03*
X14165126Y32346126D03*
X6165126Y32346126D03*
X14165126Y15064126D03*
D11*
X4050126Y18605126D03*
X17540126Y21145126D03*
%TD*%
D10*
%TO.C,K5*%
X51885126Y15064126D03*
X59885126Y32346126D03*
X51885126Y32346126D03*
X59885126Y15064126D03*
D11*
X49770126Y18605126D03*
X63260126Y21145126D03*
%TD*%
D10*
%TO.C,K4*%
X88290000Y67776126D03*
X80290000Y50494126D03*
X88290000Y50494126D03*
X80290000Y67776126D03*
D11*
X90405000Y64235126D03*
X76915000Y61695126D03*
%TD*%
D10*
%TO.C,K3*%
X65430000Y67776126D03*
X57430000Y50494126D03*
X65430000Y50494126D03*
X57430000Y67776126D03*
D11*
X67545000Y64235126D03*
X54055000Y61695126D03*
%TD*%
D10*
%TO.C,K1*%
X19710000Y67776126D03*
X11710000Y50494126D03*
X19710000Y50494126D03*
X11710000Y67776126D03*
D11*
X21825000Y64235126D03*
X8335000Y61695126D03*
%TD*%
D12*
%TO.C,U1*%
X72156400Y80869326D03*
X73426400Y80869326D03*
X74696400Y80869326D03*
X75966400Y80869326D03*
X75966400Y73669326D03*
X74696400Y73669326D03*
X73426400Y73669326D03*
X72156400Y73669326D03*
%TD*%
D13*
%TO.C,U3*%
X46285000Y82400126D03*
X46285000Y81130126D03*
X46285000Y79860126D03*
X46285000Y78590126D03*
X46285000Y77320126D03*
X46285000Y76050126D03*
X46285000Y74780126D03*
X46285000Y73510126D03*
X41335000Y73510126D03*
X41335000Y74780126D03*
X41335000Y76050126D03*
X41335000Y77320126D03*
X41335000Y78590126D03*
X41335000Y79860126D03*
X41335000Y81130126D03*
X41335000Y82400126D03*
%TD*%
D14*
%TO.C,R12*%
X49372600Y84277826D03*
X49372600Y82452826D03*
%TD*%
%TO.C,R9*%
X51277600Y84277826D03*
X51277600Y82452826D03*
%TD*%
M02*
