M48
; DRILL file {KiCad 6.0.10+dfsg-2} date 2023年01月21日 星期六 20时21分13秒
; FORMAT={-:-/ absolute / metric / decimal}
; #@! TF.CreationDate,2023-01-21T20:21:13+08:00
; #@! TF.GenerationSoftware,Kicad,Pcbnew,6.0.10+dfsg-2
; #@! TF.FileFunction,NonPlated,1,2,NPTH
FMAT,2
METRIC
; #@! TA.AperFunction,NonPlated,NPTH,ComponentDrill
T1C0.650
; #@! TA.AperFunction,NonPlated,NPTH,ComponentDrill
T2C1.702
; #@! TA.AperFunction,NonPlated,NPTH,ComponentDrill
T3C3.000
; #@! TA.AperFunction,NonPlated,NPTH,ComponentDrill
T4C4.000
%
G90
G05
T1
X48.0Y88.911
X52.0Y88.911
T2
X5.085Y23.705
X10.63Y59.135
X15.245Y23.705
X20.79Y59.135
X33.49Y59.135
X43.65Y59.135
X50.805Y23.705
X56.35Y59.135
X60.965Y23.705
X66.51Y59.135
X79.21Y59.135
X89.37Y59.135
T3
X3.5Y46.525
X3.525Y38.025
X7.625Y18.625
X11.9Y61.675
X13.975Y21.165
X18.0Y89.525
X18.25Y64.215
X32.865Y9.025
X34.76Y61.675
X41.11Y64.215
X53.345Y18.625
X57.62Y61.675
X59.695Y21.165
X63.025Y38.025
X63.97Y64.215
X71.45Y16.55
X71.45Y3.55
X71.475Y38.025
X71.475Y25.025
X80.48Y61.675
X82.0Y89.525
X86.83Y64.215
X96.5Y46.525
T4
X10.165Y23.705
X15.71Y59.135
X38.57Y59.135
X55.885Y23.705
X61.43Y59.135
X84.29Y59.135
T0
M30
