M48
; DRILL file {KiCad 6.0.10+dfsg-2} date 2023年01月21日 星期六 20时21分13秒
; FORMAT={-:-/ absolute / metric / decimal}
; #@! TF.CreationDate,2023-01-21T20:21:13+08:00
; #@! TF.GenerationSoftware,Kicad,Pcbnew,6.0.10+dfsg-2
; #@! TF.FileFunction,Plated,1,2,PTH
FMAT,2
METRIC
; #@! TA.AperFunction,Plated,PTH,ViaDrill
T1C0.300
; #@! TA.AperFunction,Plated,PTH,ComponentDrill
T2C0.350
; #@! TA.AperFunction,Plated,PTH,ComponentDrill
T3C0.500
; #@! TA.AperFunction,Plated,PTH,ComponentDrill
T4C0.700
; #@! TA.AperFunction,Plated,PTH,ComponentDrill
T5C0.800
; #@! TA.AperFunction,Plated,PTH,ComponentDrill
T6C0.950
; #@! TA.AperFunction,Plated,PTH,ComponentDrill
T7C1.000
; #@! TA.AperFunction,Plated,PTH,ComponentDrill
T8C1.200
; #@! TA.AperFunction,Plated,PTH,ComponentDrill
T9C1.500
%
G90
G05
T1
X2.967Y64.315
X4.404Y66.651
X4.404Y64.365
X6.98Y73.663
X7.716Y73.281
X8.293Y67.084
X8.529Y26.673
X9.12Y67.058
X12.367Y69.776
X12.746Y47.831
X17.038Y74.78
X17.343Y56.162
X18.207Y77.752
X18.308Y76.177
X19.07Y77.727
X19.909Y77.701
X22.017Y71.014
X22.88Y71.014
X31.944Y68.638
X32.71Y68.996
X37.673Y76.66
X37.841Y20.932
X38.247Y72.748
X40.058Y72.534
X40.203Y56.06
X40.246Y84.364
X41.88Y82.4
X42.87Y70.317
X43.632Y80.521
X43.822Y84.166
X44.495Y84.839
X45.428Y70.317
X47.137Y84.654
X47.936Y83.503
X49.261Y76.451
X49.271Y77.693
X49.373Y84.278
X49.394Y75.538
X49.482Y73.871
X49.538Y74.708
X50.017Y77.094
X50.447Y78.244
X50.744Y67.389
X51.278Y84.278
X51.3Y86.41
X51.709Y80.978
X51.837Y80.071
X52.167Y53.851
X52.397Y75.717
X52.852Y81.156
X53.177Y76.106
X53.725Y53.613
X53.958Y76.494
X54.238Y73.839
X54.249Y26.876
X54.67Y73.134
X54.961Y83.899
X55.113Y74.907
X55.85Y73.637
X56.173Y74.701
X56.504Y82.196
X56.918Y75.058
X56.967Y81.511
X58.745Y82.927
X58.745Y82.077
X59.075Y78.336
X59.615Y70.317
X59.952Y75.504
X60.269Y70.869
X60.701Y79.936
X60.961Y71.32
X61.082Y82.959
X61.234Y80.597
X61.387Y82.095
X61.498Y71.986
X61.905Y80.114
X62.428Y82.73
X62.511Y79.551
X62.555Y74.933
X63.029Y82.086
X63.063Y56.314
X63.606Y78.701
X64.714Y59.439
X64.736Y72.543
X65.555Y72.657
X67.076Y77.244
X67.661Y69.116
X67.845Y72.4
X68.626Y71.961
X72.868Y75.314
X72.884Y46.628
X73.503Y78.539
X77.077Y70.037
X77.763Y70.723
X78.329Y71.326
X78.811Y72.062
X79.442Y70.059
X80.065Y70.682
X80.361Y79.987
X80.361Y79.161
X80.417Y78.336
X80.725Y71.342
X85.923Y56.111
X89.505Y90.071
X92.455Y74.41
X93.129Y74.898
T2
X59.736Y77.422
X60.638Y78.323
X60.638Y76.52
X61.539Y79.225
X61.539Y77.422
X61.539Y75.619
X62.441Y78.323
X62.441Y76.52
X63.342Y77.422
T3
X6.165Y30.843
X6.165Y16.568
X11.71Y66.273
X11.71Y51.998
X14.165Y30.843
X14.165Y16.568
X19.71Y66.273
X19.71Y51.998
X34.57Y66.273
X34.57Y51.998
X42.57Y66.273
X42.57Y51.998
X51.885Y30.843
X51.885Y16.568
X57.43Y66.273
X57.43Y51.998
X59.885Y30.843
X59.885Y16.568
X65.43Y66.273
X65.43Y51.998
X80.29Y66.273
X80.29Y51.998
X88.29Y66.273
X88.29Y51.998
T4
X27.148Y84.712
X34.768Y84.712
T5
X27.198Y82.121
X27.198Y74.501
X29.738Y82.121
X29.738Y74.501
X32.278Y82.121
X32.278Y74.501
X34.818Y82.121
X34.818Y74.501
T6
X67.508Y85.416
X70.049Y85.416
X72.588Y85.423
X75.134Y85.416
T7
X1.9Y77.955
X1.9Y75.415
X4.44Y77.955
X4.44Y75.415
X6.98Y77.955
X6.98Y75.415
X8.865Y11.55
X8.865Y9.01
X9.52Y77.955
X9.52Y75.415
X10.028Y88.623
X10.028Y86.083
X10.028Y83.543
X10.028Y81.003
X11.405Y11.55
X11.405Y9.01
X12.06Y77.955
X12.06Y75.415
X12.568Y88.623
X12.568Y86.083
X12.568Y83.543
X12.568Y81.003
X14.6Y77.955
X14.6Y75.415
X25.875Y55.895
X25.875Y53.355
X27.3Y66.525
X27.3Y63.985
X27.3Y61.445
X27.3Y58.905
X28.415Y55.895
X28.415Y53.355
X54.585Y11.55
X54.585Y9.01
X57.125Y11.55
X57.125Y9.01
X57.729Y88.903
X60.269Y88.903
X62.809Y88.903
X71.595Y55.895
X71.595Y53.355
X73.02Y66.525
X73.02Y63.985
X73.02Y61.445
X73.02Y58.905
X74.135Y55.895
X74.135Y53.355
X75.7Y12.5
X75.7Y7.5
X75.725Y33.79
X75.725Y28.79
X85.466Y77.955
X87.498Y88.603
X87.498Y86.063
X87.498Y83.523
X87.498Y80.983
X88.006Y77.955
X90.038Y88.603
X90.038Y86.063
X90.038Y83.523
X90.038Y80.983
X90.2Y12.5
X90.2Y10.0
X90.2Y7.5
X90.225Y33.79
X90.225Y31.29
X90.225Y28.79
X90.546Y77.955
X93.086Y77.955
X93.2Y13.77
X93.2Y11.23
X93.2Y8.69
X93.2Y6.15
X93.225Y35.06
X93.225Y32.52
X93.225Y29.98
X93.225Y27.44
X95.626Y77.955
X95.74Y13.77
X95.74Y11.23
X95.74Y8.69
X95.74Y6.15
X95.765Y35.06
X95.765Y32.52
X95.765Y29.98
X95.765Y27.44
X98.166Y77.955
T8
X26.615Y34.735
X26.615Y29.735
X39.115Y34.735
X39.115Y29.735
T4
G00X46.4Y91.311
M15
G01X46.4Y90.811
M16
G05
G00X46.4Y87.861
M15
G01X46.4Y87.461
M16
G05
G00X53.6Y91.311
M15
G01X53.6Y90.811
M16
G05
G00X53.6Y87.861
M15
G01X53.6Y87.461
M16
G05
T9
G00X83.35Y15.6
M15
G01X82.05Y15.6
M16
G05
G00X83.35Y4.4
M15
G01X82.05Y4.4
M16
G05
G00X83.375Y36.89
M15
G01X82.075Y36.89
M16
G05
G00X83.375Y25.69
M15
G01X82.075Y25.69
M16
G05
T0
M30
