%TF.GenerationSoftware,KiCad,Pcbnew,6.0.10+dfsg-2*%
%TF.CreationDate,2023-01-21T20:21:13+08:00*%
%TF.ProjectId,RKD,524b442e-6b69-4636-9164-5f7063625858,57*%
%TF.SameCoordinates,Original*%
%TF.FileFunction,Profile,NP*%
%FSLAX46Y46*%
G04 Gerber Fmt 4.6, Leading zero omitted, Abs format (unit mm)*
G04 Created by KiCad (PCBNEW 6.0.10+dfsg-2) date 2023-01-21 20:21:13*
%MOMM*%
%LPD*%
G01*
G04 APERTURE LIST*
%TA.AperFunction,Profile*%
%ADD10C,0.100000*%
%TD*%
G04 APERTURE END LIST*
D10*
X24250000Y13525126D02*
G75*
G03*
X24250000Y13525126I-250000J0D01*
G01*
X3500000Y43025126D02*
X3500000Y41550252D01*
X3500000Y93025126D02*
G75*
G03*
X0Y89525126I0J-3500000D01*
G01*
X96500000Y93025126D02*
X3500000Y93025126D01*
X24250000Y5525126D02*
G75*
G03*
X23750000Y5525126I-250000J0D01*
G01*
X67949774Y3500000D02*
G75*
G03*
X71449748Y0I3500026J26D01*
G01*
X100000000Y16550252D02*
X100000000Y3500000D01*
X96500000Y43025126D02*
G75*
G03*
X100000000Y46525126I0J3500000D01*
G01*
X96500000Y-74D02*
G75*
G03*
X100000000Y3500000I0J3500000D01*
G01*
X66550252Y9000000D02*
X67949748Y9000000D01*
X0Y9000000D02*
X0Y38050252D01*
X100000026Y38050252D02*
G75*
G03*
X96500000Y41550252I-3500026J-26D01*
G01*
X100000000Y46525126D02*
X100000000Y89525126D01*
X100000026Y16550252D02*
G75*
G03*
X96500000Y20050252I-3499926J74D01*
G01*
X67949748Y3500000D02*
X67949748Y9000000D01*
X63050252Y5499974D02*
G75*
G03*
X66550252Y9000000I-52J3500052D01*
G01*
X23750000Y5525126D02*
X3500000Y5500000D01*
X100000000Y89525126D02*
G75*
G03*
X96500000Y93025126I-3500000J0D01*
G01*
X96500000Y21500000D02*
X96500000Y20050252D01*
X96500000Y0D02*
X71449748Y0D01*
X0Y89525126D02*
X0Y46525126D01*
X96500000Y21500026D02*
G75*
G03*
X100000000Y25000000I0J3500000D01*
G01*
X-26Y9000000D02*
G75*
G03*
X3500000Y5500000I3500026J26D01*
G01*
X0Y46525126D02*
G75*
G03*
X3500000Y43025126I3500000J0D01*
G01*
X3500000Y41550226D02*
G75*
G03*
X0Y38050252I0J-3500000D01*
G01*
X100000000Y38050252D02*
X100000000Y25000000D01*
X63050252Y5500000D02*
X24250000Y5525126D01*
X96500000Y43025126D02*
X96500000Y41550252D01*
M02*
