%TF.GenerationSoftware,KiCad,Pcbnew,6.0.10+dfsg-2*%
%TF.CreationDate,2023-01-21T20:21:13+08:00*%
%TF.ProjectId,RKD,524b442e-6b69-4636-9164-5f7063625858,57*%
%TF.SameCoordinates,Original*%
%TF.FileFunction,Soldermask,Bot*%
%TF.FilePolarity,Negative*%
%FSLAX46Y46*%
G04 Gerber Fmt 4.6, Leading zero omitted, Abs format (unit mm)*
G04 Created by KiCad (PCBNEW 6.0.10+dfsg-2) date 2023-01-21 20:21:13*
%MOMM*%
%LPD*%
G01*
G04 APERTURE LIST*
G04 Aperture macros list*
%AMRoundRect*
0 Rectangle with rounded corners*
0 $1 Rounding radius*
0 $2 $3 $4 $5 $6 $7 $8 $9 X,Y pos of 4 corners*
0 Add a 4 corners polygon primitive as box body*
4,1,4,$2,$3,$4,$5,$6,$7,$8,$9,$2,$3,0*
0 Add four circle primitives for the rounded corners*
1,1,$1+$1,$2,$3*
1,1,$1+$1,$4,$5*
1,1,$1+$1,$6,$7*
1,1,$1+$1,$8,$9*
0 Add four rect primitives between the rounded corners*
20,1,$1+$1,$2,$3,$4,$5,0*
20,1,$1+$1,$4,$5,$6,$7,0*
20,1,$1+$1,$6,$7,$8,$9,0*
20,1,$1+$1,$8,$9,$2,$3,0*%
G04 Aperture macros list end*
%ADD10C,3.460000*%
%ADD11C,1.701800*%
%ADD12C,3.000000*%
%ADD13C,4.000000*%
%ADD14R,2.032000X2.550000*%
%ADD15C,1.000000*%
%ADD16R,2.200000X2.500000*%
%ADD17R,1.700000X1.700000*%
%ADD18O,1.700000X1.700000*%
%ADD19O,1.700000X1.950000*%
%ADD20C,1.400000*%
%ADD21O,1.400000X1.400000*%
%ADD22C,0.650000*%
%ADD23O,1.200000X1.800000*%
%ADD24O,1.200000X1.700000*%
%ADD25R,2.000000X2.000000*%
%ADD26C,2.000000*%
%ADD27R,3.200000X2.000000*%
%ADD28O,3.000000X2.500000*%
%ADD29R,1.600000X1.600000*%
%ADD30O,1.600000X1.600000*%
%ADD31RoundRect,0.150000X-0.150000X0.650000X-0.150000X-0.650000X0.150000X-0.650000X0.150000X0.650000X0*%
%ADD32RoundRect,0.150000X0.825000X0.150000X-0.825000X0.150000X-0.825000X-0.150000X0.825000X-0.150000X0*%
%ADD33RoundRect,0.250000X-0.450000X0.262500X-0.450000X-0.262500X0.450000X-0.262500X0.450000X0.262500X0*%
G04 APERTURE END LIST*
%TO.C,H1*%
D10*
X19730000Y89525126D02*
G75*
G03*
X19730000Y89525126I-1730000J0D01*
G01*
%TO.C,H3*%
X5230000Y46525126D02*
G75*
G03*
X5230000Y46525126I-1730000J0D01*
G01*
%TO.C,H10*%
X73179748Y3550252D02*
G75*
G03*
X73179748Y3550252I-1730000J0D01*
G01*
%TO.C,H8*%
X73204874Y25025126D02*
G75*
G03*
X73204874Y25025126I-1730000J0D01*
G01*
%TO.C,H2*%
X83730000Y89525126D02*
G75*
G03*
X83730000Y89525126I-1730000J0D01*
G01*
%TO.C,H5*%
X64755126Y38025126D02*
G75*
G03*
X64755126Y38025126I-1730000J0D01*
G01*
%TO.C,H7*%
X34595126Y9025126D02*
G75*
G03*
X34595126Y9025126I-1730000J0D01*
G01*
%TO.C,H4*%
X98230000Y46525126D02*
G75*
G03*
X98230000Y46525126I-1730000J0D01*
G01*
%TO.C,H6*%
X5255126Y38025126D02*
G75*
G03*
X5255126Y38025126I-1730000J0D01*
G01*
%TO.C,H9*%
X73204874Y38025126D02*
G75*
G03*
X73204874Y38025126I-1730000J0D01*
G01*
%TO.C,H11*%
X73179748Y16550252D02*
G75*
G03*
X73179748Y16550252I-1730000J0D01*
G01*
%TD*%
D11*
%TO.C,K2*%
X43650000Y59135126D03*
D12*
X34760000Y61675126D03*
D11*
X33490000Y59135126D03*
D12*
X41110000Y64215126D03*
D13*
X38570000Y59135126D03*
D14*
X42570000Y67776126D03*
X34570000Y50494126D03*
D15*
X34570000Y51997726D03*
X34570000Y66272526D03*
D14*
X42570000Y50494126D03*
D15*
X42570000Y66272526D03*
D14*
X34570000Y67776126D03*
D16*
X44685000Y64235126D03*
D15*
X42570000Y51997726D03*
D16*
X31195000Y61695126D03*
%TD*%
D11*
%TO.C,K6*%
X5085126Y23705126D03*
D12*
X13975126Y21165126D03*
D11*
X15245126Y23705126D03*
D12*
X7625126Y18625126D03*
D13*
X10165126Y23705126D03*
D14*
X6165126Y15064126D03*
X14165126Y32346126D03*
D15*
X14165126Y30842526D03*
X14165126Y16567726D03*
D14*
X6165126Y32346126D03*
D15*
X6165126Y16567726D03*
D14*
X14165126Y15064126D03*
D16*
X4050126Y18605126D03*
D15*
X6165126Y30842526D03*
D16*
X17540126Y21145126D03*
%TD*%
D11*
%TO.C,K5*%
X50805126Y23705126D03*
D12*
X59695126Y21165126D03*
D11*
X60965126Y23705126D03*
D12*
X53345126Y18625126D03*
D13*
X55885126Y23705126D03*
D14*
X51885126Y15064126D03*
X59885126Y32346126D03*
D15*
X59885126Y30842526D03*
X59885126Y16567726D03*
D14*
X51885126Y32346126D03*
D15*
X51885126Y16567726D03*
D14*
X59885126Y15064126D03*
D16*
X49770126Y18605126D03*
D15*
X51885126Y30842526D03*
D16*
X63260126Y21145126D03*
%TD*%
D11*
%TO.C,K4*%
X89370000Y59135126D03*
D12*
X80480000Y61675126D03*
D11*
X79210000Y59135126D03*
D12*
X86830000Y64215126D03*
D13*
X84290000Y59135126D03*
D14*
X88290000Y67776126D03*
X80290000Y50494126D03*
D15*
X80290000Y51997726D03*
X80290000Y66272526D03*
D14*
X88290000Y50494126D03*
D15*
X88290000Y66272526D03*
D14*
X80290000Y67776126D03*
D16*
X90405000Y64235126D03*
D15*
X88290000Y51997726D03*
D16*
X76915000Y61695126D03*
%TD*%
D11*
%TO.C,K3*%
X66510000Y59135126D03*
D12*
X57620000Y61675126D03*
D11*
X56350000Y59135126D03*
D12*
X63970000Y64215126D03*
D13*
X61430000Y59135126D03*
D14*
X65430000Y67776126D03*
X57430000Y50494126D03*
D15*
X57430000Y51997726D03*
X57430000Y66272526D03*
D14*
X65430000Y50494126D03*
D15*
X65430000Y66272526D03*
D14*
X57430000Y67776126D03*
D16*
X67545000Y64235126D03*
D15*
X65430000Y51997726D03*
D16*
X54055000Y61695126D03*
%TD*%
D11*
%TO.C,K1*%
X20790000Y59135126D03*
D12*
X11900000Y61675126D03*
D11*
X10630000Y59135126D03*
D12*
X18250000Y64215126D03*
D13*
X15710000Y59135126D03*
D14*
X19710000Y67776126D03*
X11710000Y50494126D03*
D15*
X11710000Y51997726D03*
X11710000Y66272526D03*
D14*
X19710000Y50494126D03*
D15*
X19710000Y66272526D03*
D14*
X11710000Y67776126D03*
D16*
X21825000Y64235126D03*
D15*
X19710000Y51997726D03*
D16*
X8335000Y61695126D03*
%TD*%
D12*
%TO.C,H1*%
X18000000Y89525126D03*
%TD*%
D17*
%TO.C,J2*%
X28415000Y55895126D03*
D18*
X28415000Y53355126D03*
X25875000Y55895126D03*
X25875000Y53355126D03*
%TD*%
D19*
%TO.C,J10*%
X75134467Y85416270D03*
X72588200Y85422726D03*
X70048580Y85416270D03*
X67508200Y85416270D03*
%TD*%
D12*
%TO.C,H3*%
X3500000Y46525126D03*
%TD*%
%TO.C,H10*%
X71449748Y3550252D03*
%TD*%
%TO.C,H8*%
X71474874Y25025126D03*
%TD*%
%TO.C,H2*%
X82000000Y89525126D03*
%TD*%
D17*
%TO.C,J8*%
X54585126Y11550126D03*
D18*
X54585126Y9010126D03*
X57125126Y11550126D03*
X57125126Y9010126D03*
%TD*%
D20*
%TO.C,R4*%
X34767600Y84711526D03*
D21*
X27147600Y84711526D03*
%TD*%
D22*
%TO.C,J1*%
X52000000Y88911126D03*
X48000000Y88911126D03*
D23*
X53600000Y91061126D03*
X46400000Y91061126D03*
D24*
X46400000Y87661126D03*
X53600000Y87661126D03*
%TD*%
D25*
%TO.C,SW8*%
X90199748Y7500252D03*
D26*
X90199748Y12500252D03*
X90199748Y10000252D03*
D27*
X82699748Y15600252D03*
X82699748Y4400252D03*
D26*
X75699748Y12500252D03*
X75699748Y7500252D03*
%TD*%
D17*
%TO.C,J9*%
X93199748Y6150252D03*
D18*
X95739748Y6150252D03*
X93199748Y8690252D03*
X95739748Y8690252D03*
X93199748Y11230252D03*
X95739748Y11230252D03*
X93199748Y13770252D03*
X95739748Y13770252D03*
%TD*%
D17*
%TO.C,J3*%
X12568000Y81003126D03*
D18*
X10028000Y81003126D03*
X12568000Y83543126D03*
X10028000Y83543126D03*
X12568000Y86083126D03*
X10028000Y86083126D03*
X12568000Y88623126D03*
X10028000Y88623126D03*
%TD*%
D12*
%TO.C,H5*%
X63025126Y38025126D03*
%TD*%
D17*
%TO.C,J11*%
X14600000Y77955126D03*
D18*
X14600000Y75415126D03*
X12060000Y77955126D03*
X12060000Y75415126D03*
X9520000Y77955126D03*
X9520000Y75415126D03*
X6980000Y77955126D03*
X6980000Y75415126D03*
X4440000Y77955126D03*
X4440000Y75415126D03*
X1900000Y77955126D03*
X1900000Y75415126D03*
%TD*%
D17*
%TO.C,J6*%
X93224874Y27440126D03*
D18*
X95764874Y27440126D03*
X93224874Y29980126D03*
X95764874Y29980126D03*
X93224874Y32520126D03*
X95764874Y32520126D03*
X93224874Y35060126D03*
X95764874Y35060126D03*
%TD*%
D12*
%TO.C,H7*%
X32865126Y9025126D03*
%TD*%
%TO.C,H4*%
X96500000Y46525126D03*
%TD*%
D17*
%TO.C,J15*%
X73020000Y66525126D03*
D18*
X73020000Y63985126D03*
X73020000Y61445126D03*
X73020000Y58905126D03*
%TD*%
D12*
%TO.C,H6*%
X3525126Y38025126D03*
%TD*%
D17*
%TO.C,J14*%
X27300000Y66525126D03*
D18*
X27300000Y63985126D03*
X27300000Y61445126D03*
X27300000Y58905126D03*
%TD*%
D28*
%TO.C,SW7*%
X39115126Y34735126D03*
X26615126Y34735126D03*
X26615126Y29735126D03*
X39115126Y29735126D03*
%TD*%
D25*
%TO.C,SW6*%
X90224874Y28790126D03*
D26*
X90224874Y33790126D03*
X90224874Y31290126D03*
D27*
X82724874Y36890126D03*
X82724874Y25690126D03*
D26*
X75724874Y33790126D03*
X75724874Y28790126D03*
%TD*%
D17*
%TO.C,J4*%
X74135000Y55895126D03*
D18*
X74135000Y53355126D03*
X71595000Y55895126D03*
X71595000Y53355126D03*
%TD*%
D17*
%TO.C,J12*%
X98166000Y77955126D03*
D18*
X95626000Y77955126D03*
X93086000Y77955126D03*
X90546000Y77955126D03*
X88006000Y77955126D03*
X85466000Y77955126D03*
%TD*%
D17*
%TO.C,J5*%
X87498000Y88603126D03*
D18*
X90038000Y88603126D03*
X87498000Y86063126D03*
X90038000Y86063126D03*
X87498000Y83523126D03*
X90038000Y83523126D03*
X87498000Y80983126D03*
X90038000Y80983126D03*
%TD*%
D29*
%TO.C,SW2*%
X34818400Y82120726D03*
D30*
X32278400Y82120726D03*
X29738400Y82120726D03*
X27198400Y82120726D03*
X27198400Y74500726D03*
X29738400Y74500726D03*
X32278400Y74500726D03*
X34818400Y74500726D03*
%TD*%
D12*
%TO.C,H9*%
X71474874Y38025126D03*
%TD*%
D17*
%TO.C,J7*%
X8865126Y11550126D03*
D18*
X8865126Y9010126D03*
X11405126Y11550126D03*
X11405126Y9010126D03*
%TD*%
D12*
%TO.C,H11*%
X71449748Y16550252D03*
%TD*%
D17*
%TO.C,J13*%
X57729200Y88902526D03*
D18*
X60269200Y88902526D03*
X62809200Y88902526D03*
%TD*%
D31*
%TO.C,U1*%
X72156400Y80869326D03*
X73426400Y80869326D03*
X74696400Y80869326D03*
X75966400Y80869326D03*
X75966400Y73669326D03*
X74696400Y73669326D03*
X73426400Y73669326D03*
X72156400Y73669326D03*
%TD*%
D32*
%TO.C,U3*%
X46285000Y82400126D03*
X46285000Y81130126D03*
X46285000Y79860126D03*
X46285000Y78590126D03*
X46285000Y77320126D03*
X46285000Y76050126D03*
X46285000Y74780126D03*
X46285000Y73510126D03*
X41335000Y73510126D03*
X41335000Y74780126D03*
X41335000Y76050126D03*
X41335000Y77320126D03*
X41335000Y78590126D03*
X41335000Y79860126D03*
X41335000Y81130126D03*
X41335000Y82400126D03*
%TD*%
D33*
%TO.C,R12*%
X49372600Y84277826D03*
X49372600Y82452826D03*
%TD*%
%TO.C,R9*%
X51277600Y84277826D03*
X51277600Y82452826D03*
%TD*%
M02*
